/* XPM */
static char * fxi_xpm[] = {
"32 32 284 2",
"  	c None",
". 	c #D04400",
"+ 	c #FFFFFF",
"@ 	c #FFFFF8",
"# 	c #FFFFE8",
"$ 	c #FFF0D0",
"% 	c #FFFFF0",
"& 	c #FFF4D0",
"* 	c #FFE8A0",
"= 	c #FFF0B0",
"- 	c #FFF8C8",
"; 	c #FFFCE0",
"> 	c #F8D090",
", 	c #F8E0B0",
"' 	c #FFF8D0",
") 	c #FFFCD8",
"! 	c #F0CC78",
"~ 	c #F8E0A8",
"{ 	c #FFFFE0",
"] 	c #FFF0B8",
"^ 	c #F8CC60",
"/ 	c #F8D068",
"( 	c #FFECB0",
"_ 	c #E89430",
": 	c #E88828",
"< 	c #F8E4A0",
"[ 	c #FFFCF0",
"} 	c #FFFCF8",
"| 	c #FFF4C8",
"1 	c #FFF4B8",
"2 	c #F0C870",
"3 	c #E89C30",
"4 	c #F8D498",
"5 	c #FFFFD8",
"6 	c #F0BC50",
"7 	c #E88C10",
"8 	c #F8D070",
"9 	c #FFF8C0",
"0 	c #F8BC68",
"a 	c #E09028",
"b 	c #E88010",
"c 	c #F8DC98",
"d 	c #F8ECB0",
"e 	c #FFFCE8",
"f 	c #F8C878",
"g 	c #E89828",
"h 	c #FFFFD0",
"i 	c #FFFCC8",
"j 	c #F0A048",
"k 	c #E07800",
"l 	c #E07000",
"m 	c #F8C468",
"n 	c #FFF4C0",
"o 	c #F0B068",
"p 	c #E06C00",
"q 	c #E8A440",
"r 	c #F8F0B8",
"s 	c #FFF8D8",
"t 	c #FFF8E0",
"u 	c #FFF8E8",
"v 	c #E08800",
"w 	c #E89830",
"x 	c #E88C18",
"y 	c #F0B868",
"z 	c #FFE8A8",
"A 	c #E88020",
"B 	c #E06C10",
"C 	c #F8D898",
"D 	c #E07010",
"E 	c #E89C40",
"F 	c #F8E8A8",
"G 	c #F8F4D0",
"H 	c #F8F4D8",
"I 	c #E89018",
"J 	c #E8A040",
"K 	c #E88810",
"L 	c #E07400",
"M 	c #F0AC60",
"N 	c #F0B878",
"O 	c #F0B470",
"P 	c #E07428",
"Q 	c #E06000",
"R 	c #E89448",
"S 	c #E89440",
"T 	c #E86C00",
"U 	c #F0C470",
"V 	c #F0D890",
"W 	c #F0D098",
"X 	c #F0E0B0",
"Y 	c #F8F0D0",
"Z 	c #F0BC68",
"` 	c #E89020",
" .	c #E88000",
"..	c #E87000",
"+.	c #E06400",
"@.	c #D85C00",
"#.	c #D85800",
"$.	c #D85400",
"%.	c #D05400",
"&.	c #D05800",
"*.	c #D86400",
"=.	c #E06800",
"-.	c #F0C070",
";.	c #F0D898",
">.	c #E8BC78",
",.	c #E8B068",
"'.	c #E8C490",
").	c #F8F4E0",
"!.	c #E88400",
"~.	c #D85000",
"{.	c #D04800",
"].	c #D04C00",
"^.	c #F0C878",
"/.	c #FFF0C8",
"(.	c #E09448",
"_.	c #E8B480",
":.	c #F0C060",
"<.	c #E86800",
"[.	c #D03C00",
"}.	c #F0C480",
"|.	c #E09848",
"1.	c #D88038",
"2.	c #F8F8E0",
"3.	c #E08000",
"4.	c #D05000",
"5.	c #D03800",
"6.	c #D04000",
"7.	c #D86000",
"8.	c #F0CC88",
"9.	c #E09C50",
"0.	c #D88438",
"a.	c #D87830",
"b.	c #F0C098",
"c.	c #E08C28",
"d.	c #E88818",
"e.	c #D84800",
"f.	c #E89028",
"g.	c #FFF4D8",
"h.	c #E0A450",
"i.	c #D88838",
"j.	c #D87428",
"k.	c #E08850",
"l.	c #F8ECD8",
"m.	c #F8DCB0",
"n.	c #F0A458",
"o.	c #E88428",
"p.	c #E07C10",
"q.	c #D05C00",
"r.	c #E07810",
"s.	c #E88C30",
"t.	c #F0C478",
"u.	c #F0D490",
"v.	c #E8C478",
"w.	c #E0B868",
"x.	c #E0B058",
"y.	c #D86020",
"z.	c #F0BCA0",
"A.	c #F0B488",
"B.	c #F0B078",
"C.	c #E88C38",
"D.	c #E07C00",
"E.	c #E89400",
"F.	c #E09430",
"G.	c #F8D490",
"H.	c #E8C880",
"I.	c #E0BC68",
"J.	c #E0B060",
"K.	c #E0AC58",
"L.	c #D8A048",
"M.	c #D87028",
"N.	c #E89468",
"O.	c #E88C60",
"P.	c #E89C60",
"Q.	c #F8CC90",
"R.	c #F0C068",
"S.	c #E89C28",
"T.	c #E88800",
"U.	c #E89000",
"V.	c #F09C00",
"W.	c #E89420",
"X.	c #E0AC50",
"Y.	c #D89848",
"Z.	c #D86C28",
"`.	c #D85C20",
" +	c #E07040",
".+	c #E07038",
"++	c #E89058",
"@+	c #F0C080",
"#+	c #F0A020",
"$+	c #E05C00",
"%+	c #F0BC70",
"&+	c #D8A850",
"*+	c #D89040",
"=+	c #D87C30",
"-+	c #D86828",
";+	c #D85818",
">+	c #D85420",
",+	c #E06830",
"'+	c #E88C50",
")+	c #E89030",
"!+	c #D85010",
"~+	c #E07C28",
"{+	c #F8CCA0",
"]+	c #D89C48",
"^+	c #D87430",
"/+	c #D86420",
"(+	c #D85418",
"_+	c #E07848",
":+	c #E07C40",
"<+	c #E8A458",
"[+	c #F0A850",
"}+	c #E07C30",
"|+	c #E88410",
"1+	c #E07418",
"2+	c #F09428",
"3+	c #FFECC0",
"4+	c #D85018",
"5+	c #D86838",
"6+	c #E89870",
"7+	c #E06C30",
"8+	c #E89040",
"9+	c #F0B058",
"0+	c #E88C28",
"a+	c #F09840",
"b+	c #F0A060",
"c+	c #FFE4C8",
"d+	c #E8BC70",
"e+	c #E0B460",
"f+	c #D8A050",
"g+	c #D84C10",
"h+	c #E88C68",
"i+	c #F0C0A8",
"j+	c #D86028",
"k+	c #E07840",
"l+	c #E8A058",
"m+	c #F0B870",
"n+	c #F0D088",
"o+	c #F8D890",
"p+	c #FFF8F0",
"q+	c #D88C40",
"r+	c #D04810",
"s+	c #F0BCA8",
"t+	c #FFF4F0",
"u+	c #E08458",
"v+	c #D86830",
"w+	c #E09458",
"x+	c #E8A868",
"y+	c #E8CC88",
"z+	c #D88C38",
"A+	c #E07850",
"B+	c #FFF0E8",
"C+	c #D86428",
"D+	c #E09048",
"E+	c #E0A458",
"F+	c #E0B468",
"G+	c #E0A850",
"H+	c #E8A888",
"I+	c #D87C38",
"J+	c #E08C48",
"K+	c #E0A050",
"L+	c #E8A488",
"M+	c #E8A880",
"N+	c #D89440",
"O+	c #D04410",
"P+	c #D84810",
"Q+	c #E8A088",
"R+	c #F0B898",
"S+	c #E08048",
"T+	c #E06840",
"U+	c #F0B4A0",
"V+	c #F8DCC0",
"W+	c #E8AC78",
"X+	c #E08448",
"Y+	c #D85C18",
"Z+	c #D86438",
"`+	c #E89C80",
" @	c #F8E0D8",
".@	c #F8E4C8",
"+@	c #E8A470",
"@@	c #E08C50",
"#@	c #D87838",
"$@	c #D86C30",
"%@	c #E07C50",
"&@	c #FFECE0",
"                                                                ",
". . . . . . . . . . . . . . . . . . . . . . . . . . . . . . . . ",
". + @ @ # $ % % @ @ % % & * = - ; > , ' # % @ @ + + + + + + + . ",
". + @ # ) ! ~ # # # # { ] ^ / - ( _ : < ) ; [ [ } @ + + + + + . ",
". @ % | 1 2 3 4 { { 5 | 6 7 8 9 0 a b c d ' ; e [ } @ @ + + + . ",
". @ ) - f 7 g 3 - h i j k l m n o p l q n r s t u [ [ } @ + + . ",
". % ) = 3 v w x y h z A B p o C D p l E c F G G H u [ [ @ + + . ",
". % n < : I J K L M N O P Q R S T p l L U V W X Y H u [ } @ + . ",
". % 1 Z k K `  ...+.@.#.$.%.&.*.p =.l p -.;.>.,.'.Y ).u [ @ + . ",
". % - y l !. .L T Q &.~.{.].$.#.=.p l l ^./.+ + (._.Y u [ } + . ",
". % 5 :.p !.!.l <.@.%.{.[.{.#.%.*...L =.}.[ + + |.1._.2.[ } + . ",
". % ) F _  .3.l <.@.4.. 5.6.].4.7...L l 8.@ + + 9.0.a.b.u } + . ",
". @ # n w c.d.L <.7.4.{.e.e.].#.+.p p f.g.+ + + h.i.j.k.l.} + . ",
". @ % m.n.B o.p...7.q.@.@.$.%.@.+.r.s.t.u.v.w.x.h.i.j.y.z.} + . ",
". + @ A.B.R M C.D.D.E.!.=.*.7.+.D F.G.;.H.I.J.K.L.0.M.y.N.} + . ",
". + @ O.P.Q.R.S.T.L 7.U.V.#.l W.w ^.u + + + + X.Y.1.Z.`. +} + . ",
". + + .+++@+#+7.%.6.~.U.L $+@.w %+/.+ + + + + &+*+=+-+;+>+@ + . ",
". + + ,+'+R.)+e.!+].L #.7.w ~+{+} [ + + + + + ]+0.^+/+(+(+@ + . ",
". + + _+:+<+[+o.}+7. .|+D 1+2+3++ + + + + + + *+=+Z.`.4+5++ + . ",
". + + 6+7+8+:.9+0+0+j @+a+b+c+$ H.d+e+K.K.f+*+1.M.y.(+g+h++ + . ",
". + + i+j+k+l+m+^.n+o+$ 3+p++ + w.e+K.K.]+q+1.M./+;+!+r+s++ + . ",
". + + t+u+v+:+w+x+>.y++ + + + + e+K.X.Y.z+=+M./+;+4+r+A+B++ + . ",
". + + + i+C+v+:+D+E+F++ + + + + K.G+Y.i.a.Z.y.;+!+r+4+s++ + + . ",
". + + + @ H+`.Z.I+J+K++ + + + + &+Y.0.a.Z.y.(+g+r+. L++ + + + . ",
". + + + + [ M+C+Z.=+q++ + + + + N+0.a.-+`.(+g+O+P+Q+} + + + + . ",
". + + + + } [ R+S+M.=+i.q+*+*+i.1.^+-+`.(+g+O+T+U++ + + + + + . ",
". + + + + @ } [ V+W+X+^+a.=+a.^+M./+Y+4+r+Z+`+ @+ + + + + + + . ",
". + + + + + @ [ [ u .@b.+@@@#@Z.C+$@%@6+s+&@+ + + + + + + + + . ",
". + + + + + @ } [ [ u u 2.2.2.u u [ [ } @ + + + + + + + + + + . ",
". + + + + + + @ @ } [ [ [ [ [ [ [ } @ @ + + + + + + + + + + + . ",
". . . . . . . . . . . . . . . . . . . . . . . . . . . . . . . . ",
"                                                                "};
