/* XPM */
static char * fpg_xpm[] = {
"32 32 418 2",
"  	c None",
". 	c #D04400",
"+ 	c #D04501",
"@ 	c #D4510D",
"# 	c #DF7520",
"$ 	c #D14602",
"% 	c #D34F0C",
"& 	c #D45411",
"* 	c #D14905",
"= 	c #FFFFFF",
"- 	c #FFF8E1",
"; 	c #FFFEFA",
"> 	c #FEEDB4",
", 	c #FFFDF7",
"' 	c #FEF1C1",
") 	c #FFFEF7",
"! 	c #FFFDF6",
"~ 	c #FEF4D8",
"{ 	c #FAEAC7",
"] 	c #FCEED0",
"^ 	c #FEFCF8",
"/ 	c #FEF4D3",
"( 	c #FDEFC4",
"_ 	c #FEF5DA",
": 	c #FFFAE9",
"< 	c #FCDF93",
"[ 	c #FEECB9",
"} 	c #FDE598",
"| 	c #FEF7E0",
"1 	c #FBE7B1",
"2 	c #F5D293",
"3 	c #F7D896",
"4 	c #FDF6E6",
"5 	c #FFF6DA",
"6 	c #FADDA3",
"7 	c #FDF1D4",
"8 	c #FDEDC9",
"9 	c #FFFFFE",
"0 	c #F7C864",
"a 	c #F0AB33",
"b 	c #F8CA63",
"c 	c #FDF0CF",
"d 	c #FDEDC2",
"e 	c #E37E21",
"f 	c #FBE6C7",
"g 	c #F7DC9D",
"h 	c #FEFAF1",
"i 	c #D55511",
"j 	c #FFFAE8",
"k 	c #FEF3D2",
"l 	c #FCEFD4",
"m 	c #F7D097",
"n 	c #EFB374",
"o 	c #FFFCF4",
"p 	c #F3F3F3",
"q 	c #EFDEB2",
"r 	c #E88606",
"s 	c #E67D00",
"t 	c #F0B13C",
"u 	c #E9E9E8",
"v 	c #EEDBBB",
"w 	c #EFDDB6",
"x 	c #E17915",
"y 	c #DE6800",
"z 	c #F2DEB1",
"A 	c #EBE7DE",
"B 	c #E4E4E4",
"C 	c #D14703",
"D 	c #FFF7D9",
"E 	c #F9DCA9",
"F 	c #F6D096",
"G 	c #EFB474",
"H 	c #E38332",
"I 	c #F5D5B7",
"J 	c #E8B560",
"K 	c #E47D04",
"L 	c #E37700",
"M 	c #E37500",
"N 	c #EAA427",
"O 	c #CDCBC0",
"P 	c #DCB88F",
"Q 	c #DFAB6B",
"R 	c #DD8734",
"S 	c #DA9C5E",
"T 	c #EAD29D",
"U 	c #BEBEBE",
"V 	c #BBBBBB",
"W 	c #D34E0B",
"X 	c #FEF6DF",
"Y 	c #FAE2AE",
"Z 	c #EFB575",
"` 	c #ECA45D",
" .	c #E47F11",
"..	c #EEA94D",
"+.	c #FFFEF8",
"@.	c #FDEDC3",
"#.	c #E47A01",
"$.	c #DF6C00",
"%.	c #E06F00",
"&.	c #DF6B00",
"*.	c #F3B548",
"=.	c #F8DDB7",
"-.	c #E58D4C",
";.	c #E37E20",
">.	c #EA9D53",
",.	c #E5872F",
"'.	c #E68B32",
").	c #FBEFD3",
"!.	c #DD7025",
"~.	c #FFFDF1",
"{.	c #F7D8AE",
"].	c #EEB06B",
"^.	c #DE6B17",
"/.	c #E98A00",
"(.	c #E67F00",
"_.	c #F8D48E",
":.	c #FFFFFD",
"<.	c #FFFCF2",
"[.	c #FCE9BE",
"}.	c #F4C176",
"|.	c #DC6200",
"1.	c #F2B860",
"2.	c #EDA552",
"3.	c #E27C29",
"4.	c #E27C21",
"5.	c #E27C19",
"6.	c #E58731",
"7.	c #F7DB9B",
"8.	c #D14804",
"9.	c #FDEBB9",
"0.	c #FBE7BE",
"a.	c #EEAF70",
"b.	c #E98B0E",
"c.	c #E88501",
"d.	c #E47A00",
"e.	c #E27500",
"f.	c #EDA44C",
"g.	c #F0BD7A",
"h.	c #E2B071",
"i.	c #E39243",
"j.	c #D95A01",
"k.	c #DA5D01",
"l.	c #DE6B09",
"m.	c #DE6B02",
"n.	c #E27401",
"o.	c #E27C14",
"p.	c #E27F22",
"q.	c #DE6F0A",
"r.	c #E27C1F",
"s.	c #EBE2CD",
"t.	c #E9E5DC",
"u.	c #E7E7E7",
"v.	c #FFFCF1",
"w.	c #F6CD86",
"x.	c #EDA761",
"y.	c #EC940E",
"z.	c #E57D01",
"A.	c #E27600",
"B.	c #DC5F00",
"C.	c #D85500",
"D.	c #D64F00",
"E.	c #D54E00",
"F.	c #D65101",
"G.	c #D75401",
"H.	c #DB5E01",
"I.	c #DD6503",
"J.	c #E37A0B",
"K.	c #DD781A",
"L.	c #DE710C",
"M.	c #E29139",
"N.	c #E6D09E",
"O.	c #D1C6AB",
"P.	c #BABABA",
"Q.	c #BABAB9",
"R.	c #B9B9B9",
"S.	c #D14704",
"T.	c #FFF7DC",
"U.	c #FBE2A8",
"V.	c #E68720",
"W.	c #E78400",
"X.	c #E17201",
"Y.	c #DB5F01",
"Z.	c #D85701",
"`.	c #D54F01",
" +	c #D44A01",
".+	c #D34802",
"++	c #D65203",
"@+	c #DA5F06",
"#+	c #DA5F09",
"$+	c #DD6A0E",
"%+	c #E5831B",
"&+	c #E6882A",
"*+	c #E48120",
"=+	c #EFB77D",
"-+	c #FEFBF2",
";+	c #FEFAF2",
">+	c #FFF7DA",
",+	c #F6CD8B",
"'+	c #E2790D",
")+	c #E78301",
"!+	c #E37901",
"~+	c #E06F01",
"{+	c #DD6401",
"]+	c #D95C01",
"^+	c #D75201",
"/+	c #D34901",
"(+	c #D14302",
"_+	c #D04106",
":+	c #D54F0A",
"<+	c #DA5F0F",
"[+	c #DB6818",
"}+	c #E17A23",
"|+	c #E68A2B",
"1+	c #E79234",
"2+	c #EBA14C",
"3+	c #F4CC94",
"4+	c #F7EED7",
"5+	c #F2E9D1",
"6+	c #EDEDEC",
"7+	c #ECECEB",
"8+	c #E6E6E5",
"9+	c #E5E5E5",
"0+	c #FFFEFB",
"a+	c #F9E9D3",
"b+	c #EBA453",
"c+	c #DC6400",
"d+	c #D95B01",
"e+	c #D55102",
"f+	c #D24802",
"g+	c #D04005",
"h+	c #CE400E",
"i+	c #DA6215",
"j+	c #DC6B21",
"k+	c #E07D30",
"l+	c #E69340",
"m+	c #EBA650",
"n+	c #EEB15E",
"o+	c #EDBD75",
"p+	c #E6D4AF",
"q+	c #DDDDD5",
"r+	c #DDDDD7",
"s+	c #D9D9D4",
"t+	c #D4D4D0",
"u+	c #C8C8C5",
"v+	c #C1C1BF",
"w+	c #FEFDFA",
"x+	c #F7DEC3",
"y+	c #ECB287",
"z+	c #E57C00",
"A+	c #E37A00",
"B+	c #E16F01",
"C+	c #DD6500",
"D+	c #DA5C01",
"E+	c #D65302",
"F+	c #D44B03",
"G+	c #D2470A",
"H+	c #D75914",
"I+	c #DF7424",
"J+	c #E07D38",
"K+	c #E89C50",
"L+	c #EBAB54",
"M+	c #E9A93F",
"N+	c #E59A23",
"O+	c #E18D0D",
"P+	c #E18E12",
"Q+	c #E7A43F",
"R+	c #EFC27F",
"S+	c #F8E6CB",
"T+	c #FEFAF0",
"U+	c #FCF0DA",
"V+	c #F0C5A6",
"W+	c #E48A3F",
"X+	c #E47C00",
"Y+	c #DD6700",
"Z+	c #DA5F01",
"`+	c #D85602",
" @	c #D54F06",
".@	c #D7570F",
"+@	c #DF7421",
"@@	c #E07F39",
"#@	c #E89E56",
"$@	c #E9A846",
"%@	c #E39318",
"&@	c #DF8600",
"*@	c #E39928",
"=@	c #EBC78F",
"-@	c #EFEFED",
";@	c #FBEDD7",
">@	c #F7E2CB",
",@	c #F1CBB0",
"'@	c #E37609",
")@	c #E37701",
"!@	c #DF6B01",
"~@	c #DC6401",
"{@	c #DB5F02",
"]@	c #DF6C0A",
"^@	c #E17919",
"/@	c #E18030",
"(@	c #E79B50",
"_@	c #E08A08",
":@	c #DF8B0C",
"<@	c #D8B47A",
"[@	c #FFFEFD",
"}@	c #FEFDFB",
"|@	c #F5D8BB",
"1@	c #E9A87D",
"2@	c #E16F00",
"3@	c #E37801",
"4@	c #E37601",
"5@	c #F0A304",
"6@	c #F0A50F",
"7@	c #E68C23",
"8@	c #E99C41",
"9@	c #ECAC54",
"0@	c #FFFEFE",
"a@	c #FEFEFC",
"b@	c #ECA854",
"c@	c #E67E00",
"d@	c #E78501",
"e@	c #DF6A01",
"f@	c #E68206",
"g@	c #E58214",
"h@	c #F0AC2C",
"i@	c #F2BB50",
"j@	c #E9A73F",
"k@	c #FFF8EF",
"l@	c #FBECD0",
"m@	c #EB9208",
"n@	c #CE3C03",
"o@	c #D54E09",
"p@	c #EC9618",
"q@	c #F0AF34",
"r@	c #ECA95B",
"s@	c #E49923",
"t@	c #FDF7E5",
"u@	c #F6D28D",
"v@	c #E4801F",
"w@	c #D85600",
"x@	c #D65200",
"y@	c #D44800",
"z@	c #D85608",
"A@	c #E07619",
"B@	c #E28337",
"C@	c #EDB061",
"D@	c #E18C0A",
"E@	c #FFFEFC",
"F@	c #FDF8E9",
"G@	c #F9E6D1",
"H@	c #E9A676",
"I@	c #E27E26",
"J@	c #DF7111",
"K@	c #E99643",
"L@	c #E47B07",
"M@	c #EB9C2C",
"N@	c #EBA456",
"O@	c #F1C17C",
"P@	c #E18E0F",
"Q@	c #F4C782",
"R@	c #FAECD7",
"S@	c #EFB577",
"T@	c #F2C69A",
"U@	c #F6D7B4",
"V@	c #EFB469",
"W@	c #F4C879",
"X@	c #F6D4A5",
"Y@	c #F8E2BE",
"Z@	c #E69F31",
"`@	c #FEFCF7",
" #	c #FDF9EF",
".#	c #F6DAA5",
"+#	c #F8DAA8",
"@#	c #F8DFB6",
"##	c #FAE7C5",
"$#	c #F7D8A5",
"%#	c #F9DA9C",
"&#	c #FAE6C2",
"*#	c #FBEAC8",
"=#	c #EEC079",
"-#	c #FCF6E7",
";#	c #FDF6E7",
">#	c #FCF1D8",
",#	c #F8F3E5",
"'#	c #E3D3AE",
")#	c #EDDCAE",
"!#	c #EEE6D4",
"~#	c #F2E1B6",
"{#	c #F0DEC0",
"]#	c #E49A2A",
"^#	c #EDEDED",
"/#	c #ACACAB",
"(#	c #BCBCBB",
"_#	c #C2C2C0",
":#	c #CBCBC6",
"<#	c #D6D6CF",
"[#	c #E2BE81",
"}#	c #E08C0C",
"|#	c #E18D0E",
"1#	c #F2CE98",
"2#	c #F9F9F9",
"3#	c #DADADA",
"4#	c #E8E8E7",
"5#	c #EBEBEA",
"6#	c #EEEEEC",
"7#	c #F2F2EF",
"8#	c #EDC990",
"9#	c #ABABAB",
"0#	c #C0C0BE",
"a#	c #C6C6C2",
"b#	c #CDCDC8",
"c#	c #DFCDAA",
"d#	c #E3B66D",
"e#	c #E29F37",
"f#	c #E08D10",
"g#	c #D24D09",
"h#	c #D4520E",
"i#	c #D55613",
"j#	c #D65B17",
"k#	c #D65D19",
"                                                                ",
". + @ . # $ . . . . . % & . . . . * . . . . . . . . . . . . . . ",
". = - ; > , = = = = = ; ' ) ) = ! ~ { ] ^ = = = = = = = = = = . ",
"+ ) / ( _ : = = = = = = < [ } = | 1 2 3 4 = = = = = = = = = = . ",
"+ 5 : 6 7 8 = = = = = 9 0 a b = c d e f g h = = = = = = = = = . ",
"i j k l m n o = = = p q r s t u v w x y z A B B = = = = = = = . ",
"C D E F G H I = = , J K L M N O P Q R y S T U V = = = = = = = . ",
"W X Y Z `  ...+.= @.#.$.%.&.*.=.-.;.>.,.'.).^ = = = = = = = = . ",
"!.~.{.].^./.(._.:.<.[.}.|.|.1.2.$.3.4.5.6.7.).= = = = = = = = . ",
"8.9.0.a.b.c.d.e.f.g.h.i.j.k.l.m.n.o.p.q.r.s.t.u.u.u.u.u.= = = . ",
". v.w.x.y.z.A.&.B.C.D.E.F.G.k.H.I.J.K.L.M.N.O.P.Q.R.R.R.= = = . ",
"S.T.U.V.W.#.X.y Y.Z.`. +.+++@+#+$+%+&+*+=+-+;+= = = = = = = = . ",
". >+,+'+)+!+~+{+]+^+/+(+_+:+<+[+}+|+1+2+3+4+5+6+7+8+9+= = = = . ",
". 0+a+b+(.!+%.c+d+e+f+g+h+i+j+k+l+m+n+o+p+q+r+s+t+u+v+= = = = . ",
". w+x+y+z+A+B+C+D+E+F+G+H+I+J+K+L+M+N+O+P+Q+R+S+= = = = = = = . ",
". T+U+V+W+X+X.Y+Z+`+ @.@+@@@#@$@%@&@&@&@&@&@&@*@=@-@= = = = = . ",
". = ;@>@,@'@)@!@~@{@]@^@/@(@$@_@&@&@&@&@&@&@&@&@:@<@= = = = = . ",
". 9 [@}@|@1@2@3@4@5@6@7@8@9@%@&@&@&@&@&@&@&@&@&@&@= = = = = = . ",
". = = 0@a@b@c@d@e@f@g@h@i@j@&@&@&@&@k@&@&@&@&@&@= = = = = = = . ",
". = = = l@m@X.Z.n@o@p@q@r@s@&@&@&@&@&@&@&@&@&@= = = = = = = = . ",
". = 9 t@u@v@w@x@y@z@A@B@C@D@&@&@&@&@&@&@&@&@= = = = = = = = = . ",
". = E@F@G@H@I@J@K@L@M@N@O@P@&@&@&@&@&@&@&@= = = = = = = = = = . ",
". = = a@Q@R@S@T@U@V@W@X@Y@Z@&@&@&@&@&@&@&@&@&@= = = = = = = = . ",
". = = `@ #.#+#@###$#%#&#*#=#&@&@&@&@&@&@&@&@&@&@&@= = = = = = . ",
". = = = [@-#;#>#,#'#)#!#~#{#*@&@&@&@&@&@&@&@&@&@&@]#= = = = = . ",
". = = = = = = = ^#/#(#_#:#<#[#}#&@&@&@&@&@&@&@&@|#1#= = = = = . ",
". = = = = 2#3#u.u.u.4#u 5#6#7#8#*@&@&@&@&@&@&@]#1#= = = = = = . ",
". = = = = ^#9#R.R.R.P.(#0#a#b#<#c#d#e#f#f#e#R+S+= = = = = = = . ",
". = = = = = = = = = = = = = = = = = = = = = = = = = = = = = = . ",
". = = = = = = = = = = = = = = = = = = = = = = = = = = = = = = . ",
". . . . . . . . . . . . + $ * g#h#i#j#k#k#j#i#h#g#* $ + . . . . ",
"                                                                "};
