/* XPM */
static char * fxc_xpm[] = {
"32 32 584 2",
"  	c None",
". 	c #D04400",
"+ 	c #D04501",
"@ 	c #D4510D",
"# 	c #DF7520",
"$ 	c #D14602",
"% 	c #D34F0C",
"& 	c #D45411",
"* 	c #D14905",
"= 	c #FFFFFF",
"- 	c #FFF8E1",
"; 	c #FFFEFA",
"> 	c #FEEDB4",
", 	c #FFFDF7",
"' 	c #FEF1C1",
") 	c #FFFEF7",
"! 	c #FFFDF6",
"~ 	c #FEF4D8",
"{ 	c #FAEAC7",
"] 	c #FCEED0",
"^ 	c #FEFCF8",
"/ 	c #FEF4D3",
"( 	c #FDEFC4",
"_ 	c #FEF5DA",
": 	c #FFFAE9",
"< 	c #FCDF93",
"[ 	c #FEECB9",
"} 	c #FDE598",
"| 	c #FEF7E0",
"1 	c #FBE7B1",
"2 	c #F5D293",
"3 	c #F7D896",
"4 	c #FDF6E6",
"5 	c #FFF6DA",
"6 	c #FADDA3",
"7 	c #FDF1D4",
"8 	c #FDEDC9",
"9 	c #FFFFFE",
"0 	c #F7C864",
"a 	c #F0AB33",
"b 	c #F8CA63",
"c 	c #FDF0CF",
"d 	c #FDEDC2",
"e 	c #E37E21",
"f 	c #FBE6C7",
"g 	c #F7DC9D",
"h 	c #FEFAF1",
"i 	c #D55511",
"j 	c #FFFAE8",
"k 	c #FEF3D2",
"l 	c #FCEFD4",
"m 	c #F7D097",
"n 	c #EFB374",
"o 	c #FFFCF4",
"p 	c #F3F3F3",
"q 	c #EFDEB2",
"r 	c #E88606",
"s 	c #E67D00",
"t 	c #F0B13C",
"u 	c #E9E9E8",
"v 	c #EEDBBB",
"w 	c #EFDDB6",
"x 	c #E17915",
"y 	c #DE6800",
"z 	c #F2DEB1",
"A 	c #EBE7DE",
"B 	c #E4E4E4",
"C 	c #D14703",
"D 	c #FFF7D9",
"E 	c #F9DCA9",
"F 	c #F6D096",
"G 	c #EFB474",
"H 	c #E38332",
"I 	c #F5D5B7",
"J 	c #E8B560",
"K 	c #E47D04",
"L 	c #E37700",
"M 	c #E37500",
"N 	c #EAA427",
"O 	c #CDCBC0",
"P 	c #DCB88F",
"Q 	c #DFAB6B",
"R 	c #DD8734",
"S 	c #DA9C5E",
"T 	c #EAD29D",
"U 	c #BEBEBE",
"V 	c #BBBBBB",
"W 	c #D34E0B",
"X 	c #FEF6DF",
"Y 	c #FAE2AE",
"Z 	c #EFB575",
"` 	c #ECA45D",
" .	c #E47F11",
"..	c #EEA94D",
"+.	c #FFFEF8",
"@.	c #FDEDC3",
"#.	c #E47A01",
"$.	c #DF6C00",
"%.	c #E06F00",
"&.	c #DF6B00",
"*.	c #F3B548",
"=.	c #F8DCB6",
"-.	c #E58D4C",
";.	c #E27D20",
">.	c #E99C52",
",.	c #E4862F",
"'.	c #E58A32",
").	c #FAEDD2",
"!.	c #FEFBF7",
"~.	c #FFFEFE",
"{.	c #DD7025",
"].	c #FFFDF1",
"^.	c #F7D8AE",
"/.	c #EEB06B",
"(.	c #DE6B17",
"_.	c #E98A00",
":.	c #E67F00",
"<.	c #F8D48E",
"[.	c #FFFFFD",
"}.	c #FFFCF2",
"|.	c #FCE9BE",
"1.	c #F4C176",
"2.	c #DC6200",
"3.	c #F2B760",
"4.	c #ECA351",
"5.	c #DD6A00",
"6.	c #DF7828",
"7.	c #DE7820",
"8.	c #DE7718",
"9.	c #E1822F",
"0.	c #F3D496",
"a.	c #F8EACE",
"b.	c #FEFCFC",
"c.	c #FEFDFD",
"d.	c #D14804",
"e.	c #FDEBB9",
"f.	c #FBE7BE",
"g.	c #EEAF70",
"h.	c #E98B0E",
"i.	c #E88501",
"j.	c #E47A00",
"k.	c #E27500",
"l.	c #EDA44C",
"m.	c #F0BD7A",
"n.	c #E2B071",
"o.	c #E39243",
"p.	c #D95A01",
"q.	c #DA5D01",
"r.	c #DD6A09",
"s.	c #DB6802",
"t.	c #DD6F01",
"u.	c #DC7413",
"v.	c #DA741F",
"w.	c #D56509",
"x.	c #D7731E",
"y.	c #E4D2BF",
"z.	c #E3D9D0",
"A.	c #E4E0E0",
"B.	c #E5E3E3",
"C.	c #E6E6E6",
"D.	c #E7E6E6",
"E.	c #E7E7E7",
"F.	c #FFFCF1",
"G.	c #F6CD86",
"H.	c #EDA761",
"I.	c #EC940E",
"J.	c #E57D01",
"K.	c #E27600",
"L.	c #DC5F00",
"M.	c #D85500",
"N.	c #D64F00",
"O.	c #D54E00",
"P.	c #D65101",
"Q.	c #D65301",
"R.	c #D75900",
"S.	c #D65800",
"T.	c #D45B00",
"U.	c #D66805",
"V.	c #9FC05D",
"W.	c #9FBF5B",
"X.	c #9FC360",
"Y.	c #D7B286",
"Z.	c #BFAB94",
"`.	c #B3ACAC",
" +	c #B6B1B1",
".+	c #B7B5B5",
"++	c #B8B7B7",
"@+	c #B9B8B8",
"#+	c #D14704",
"$+	c #FFF7DC",
"%+	c #FBE2A8",
"&+	c #E68720",
"*+	c #E78400",
"=+	c #E17201",
"-+	c #DB5F01",
";+	c #D85701",
">+	c #D44E01",
",+	c #D34901",
"'+	c #D14501",
")+	c #D24D01",
"!+	c #D35401",
"~+	c #CE4E00",
"{+	c #CB5000",
"]+	c #FAED89",
"^+	c #F9ED74",
"/+	c #F9EC89",
"(+	c #CDC464",
"_+	c #A19E70",
":+	c #6E6B6A",
"<+	c #F1E0E0",
"[+	c #F6EBEB",
"}+	c #F9F2F2",
"|+	c #FCF9F9",
"1+	c #FFF7DA",
"2+	c #F6CD8B",
"3+	c #E2790D",
"4+	c #E78301",
"5+	c #E37901",
"6+	c #E06F01",
"7+	c #DD6401",
"8+	c #D95C01",
"9+	c #D14801",
"0+	c #CE4001",
"a+	c #CA3B03",
"b+	c #CB4203",
"c+	c #CC4801",
"d+	c #C64400",
"e+	c #F9EB88",
"f+	c #F8BE88",
"g+	c #F8EB88",
"h+	c #CBBE5D",
"i+	c #9F9636",
"j+	c #898449",
"k+	c #6C6765",
"l+	c #D5BDBD",
"m+	c #DBC9C9",
"n+	c #DBCFCF",
"o+	c #DED7D7",
"p+	c #FCF8F8",
"q+	c #FDFBFB",
"r+	c #FFFEFB",
"s+	c #F9E9D3",
"t+	c #EBA453",
"u+	c #DC6400",
"v+	c #D95B01",
"w+	c #D35002",
"x+	c #CF4401",
"y+	c #C93902",
"z+	c #C33205",
"A+	c #F9BD89",
"B+	c #C34002",
"C+	c #BF3D01",
"D+	c #F8EA88",
"E+	c #F7BF44",
"F+	c #CABD5B",
"G+	c #9C902F",
"H+	c #847D08",
"I+	c #6C683A",
"J+	c #676363",
"K+	c #BD957C",
"L+	c #CCAD9D",
"M+	c #C4BF57",
"N+	c #B4AAAA",
"O+	c #FEFDFA",
"P+	c #F7DEC3",
"Q+	c #ECB287",
"R+	c #E57C00",
"S+	c #E37A00",
"T+	c #E16F01",
"U+	c #DD6500",
"V+	c #CD4401",
"W+	c #C63803",
"X+	c #F9BC88",
"Y+	c #F8BD2E",
"Z+	c #F7BD44",
"`+	c #CABC88",
" @	c #F7E988",
".@	c #F7BE44",
"+@	c #C9BC5B",
"@@	c #9C9233",
"#@	c #88810E",
"$@	c #716A3D",
"%@	c #FAC855",
"&@	c #CDC840",
"*@	c #FCCA42",
"=@	c #F8CC64",
"-@	c #A9A27A",
";@	c #FAF4F4",
">@	c #FDFAFA",
",@	c #FEFAF0",
"'@	c #FCF0DA",
")@	c #F0C5A6",
"!@	c #E48A3F",
"~@	c #E47C00",
"{@	c #DC6600",
"]@	c #D75C01",
"^@	c #D25001",
"/@	c #CA4201",
"(@	c #C43E01",
"_@	c #9E902E",
":@	c #CABB2E",
"<@	c #F7BB2D",
"[@	c #F6BB2E",
"}@	c #F6E988",
"|@	c #F6BD44",
"1@	c #C8BB5B",
"2@	c #9C9235",
"3@	c #867E0C",
"4@	c #6F683A",
"5@	c #F7C33B",
"6@	c #F8C53D",
"7@	c #9E993E",
"8@	c #867C59",
"9@	c #6D6565",
"0@	c #F7EDED",
"a@	c #FBF7F7",
"b@	c #FBEDD7",
"c@	c #F7E2CB",
"d@	c #F1CBB0",
"e@	c #E37609",
"f@	c #E27601",
"g@	c #DD6901",
"h@	c #D75F01",
"i@	c #D15501",
"j@	c #CD5501",
"k@	c #C64F01",
"l@	c #867839",
"m@	c #9C8E2D",
"n@	c #F6BB2D",
"o@	c #F6BE45",
"p@	c #C7BC5E",
"q@	c #999135",
"r@	c #827C09",
"s@	c #6B6537",
"t@	c #F3C038",
"u@	c #F3C139",
"v@	c #6C673A",
"w@	c #554B4B",
"x@	c #E4C3C3",
"y@	c #EDD6D6",
"z@	c #F4E6E6",
"A@	c #FFFEFD",
"B@	c #FEFDFB",
"C@	c #F5D8BB",
"D@	c #E9A77D",
"E@	c #DF6D00",
"F@	c #DF7301",
"G@	c #DB6D01",
"H@	c #E18B01",
"I@	c #FBC388",
"J@	c #F9BF2E",
"K@	c #F7BD2E",
"L@	c #F6BC2D",
"M@	c #F6E888",
"N@	c #F6BE46",
"O@	c #CBC267",
"P@	c #9D9437",
"Q@	c #877F0C",
"R@	c #70683B",
"S@	c #CB963B",
"T@	c #F9C43C",
"U@	c #FAC63E",
"V@	c #A08E65",
"W@	c #D6A990",
"X@	c #DBB39A",
"Y@	c #F7EEEE",
"Z@	c #CF4300",
"`@	c #FEFEFC",
" #	c #ECA754",
".#	c #E47B00",
"+#	c #E27E01",
"@#	c #D55F01",
"##	c #FAC344",
"$#	c #CC925B",
"%#	c #9E932E",
"&#	c #9D912D",
"*#	c #C98E2D",
"=#	c #F7C149",
"-#	c #F6EB8C",
";#	c #F7C24D",
">#	c #CAC166",
",#	c #9D953A",
"'#	c #877F0D",
")#	c #877F46",
"!#	c #F9C551",
"~#	c #F9C53D",
"{#	c #FAC73F",
"]#	c #FBC941",
"^#	c #F7CA62",
"/#	c #D7D068",
"(#	c #FBECD0",
"_#	c #EA9108",
":#	c #DE6F01",
"<#	c #D25101",
"[#	c #C33503",
"}#	c #70615B",
"|#	c #71665B",
"1#	c #6A5F55",
"2#	c #6E615B",
"3#	c #9A8C5B",
"4#	c #F8C137",
"5#	c #F8C450",
"6#	c #9D9568",
"7#	c #70683A",
"8#	c #F8C451",
"9#	c #F8C33B",
"0#	c #F9C43B",
"a#	c #CCC53C",
"b#	c #726C6C",
"c#	c #6D6868",
"d#	c #9E8E8E",
"e#	c #A29797",
"f#	c #F4E7E7",
"g#	c #FAF3F3",
"h#	c #CE4300",
"i#	c #FDF7E5",
"j#	c #F6D28D",
"k#	c #E37F1F",
"l#	c #D55400",
"m#	c #D04D00",
"n#	c #C94000",
"o#	c #C33F01",
"p#	c #70625B",
"q#	c #685A55",
"r#	c #C98E5B",
"s#	c #F7BE33",
"t#	c #F7C035",
"u#	c #F8C33A",
"v#	c #F8C395",
"w#	c #F8C551",
"x#	c #F9C33B",
"y#	c #CCC53D",
"z#	c #9C8080",
"A#	c #998383",
"B#	c #9E8D8D",
"C#	c #ECD5D5",
"D#	c #FFFEFC",
"E#	c #FDF8E9",
"F#	c #F9E6D1",
"G#	c #E9A576",
"H#	c #E07B25",
"I#	c #DA6B10",
"J#	c #DE873C",
"K#	c #D16100",
"L#	c #CE6A10",
"M#	c #C1551A",
"N#	c #CABE5E",
"O#	c #F8C237",
"P#	c #F8C135",
"Q#	c #CEBD54",
"R#	c #DBAEAE",
"S#	c #E4C2C2",
"T#	c #F4C782",
"U#	c #FAEBD6",
"V#	c #EDB275",
"W#	c #EEBE94",
"X#	c #EEC7A6",
"Y#	c #E09957",
"Z#	c #DD9956",
"`#	c #D48E67",
" $	c #CCA765",
".$	c #F9C236",
"+$	c #CC973B",
"@$	c #888045",
"#$	c #716A6A",
"$$	c #807979",
"%$	c #9EC43C",
"&$	c #CC9769",
"*$	c #6B6363",
"=$	c #9F986A",
"-$	c #CC993E",
";$	c #CFBF56",
">$	c #F4C45C",
",$	c #BFAF96",
"'$	c #EEDADA",
")$	c #F5E9E9",
"!$	c #FEFCF7",
"~$	c #FDF9EF",
"{$	c #F6D9A4",
"]$	c #F7D8A6",
"^$	c #F6DAB2",
"/$	c #F5DCBC",
"($	c #EDC394",
"_$	c #E7B57D",
":$	c #E0AE8F",
"<$	c #C29A85",
"[$	c #89844A",
"}$	c #6C6564",
"|$	c #9B7F7D",
"1$	c #947878",
"2$	c #A88787",
"3$	c #CD957C",
"4$	c #FAC63D",
"5$	c #CD967D",
"6$	c #957979",
"7$	c #A98A8A",
"8$	c #A6A0A3",
"9$	c #8A854C",
"0$	c #8A864D",
"a$	c #A09191",
"b$	c #EFDCDC",
"c$	c #F6ECEC",
"d$	c #FBF6F6",
"e$	c #FCF6E7",
"f$	c #FDF5E6",
"g$	c #FBEFD6",
"h$	c #F5EDDF",
"i$	c #DDC6A3",
"j$	c #E1C297",
"k$	c #D9BDAC",
"l$	c #C09F84",
"m$	c #A69292",
"n$	c #917D7C",
"o$	c #8F7B7B",
"p$	c #C39797",
"q$	c #D29F86",
"r$	c #FAC83F",
"s$	c #D7A7A7",
"t$	c #D8A8A8",
"u$	c #AE9494",
"v$	c #C4A7A7",
"w$	c #827E7E",
"x$	c #A19595",
"y$	c #F2E1E1",
"z$	c #F8EFEF",
"A$	c #CF4400",
"B$	c #ECEBEB",
"C$	c #A9A6A6",
"D$	c #B3ADAD",
"E$	c #B0A5A5",
"F$	c #AC9C9C",
"G$	c #938888",
"H$	c #817676",
"I$	c #A58C8C",
"J$	c #A38989",
"K$	c #9E8383",
"L$	c #9F8D8D",
"M$	c #9F9B6D",
"N$	c #A79494",
"O$	c #CDABAB",
"P$	c #DCB8B8",
"Q$	c #E2BFBF",
"R$	c #B4A0A0",
"S$	c #A69696",
"T$	c #A89A9A",
"U$	c #F9F9F9",
"V$	c #DADADA",
"W$	c #E3DEDE",
"X$	c #E0D7D7",
"Y$	c #DDD0D0",
"Z$	c #D9C9C9",
"`$	c #D8C4C4",
" %	c #D6C1C1",
".%	c #D4BDBD",
"+%	c #C4ADAD",
"@%	c #877D7D",
"#%	c #9B8F8F",
"$%	c #887E7E",
"%%	c #AA9797",
"&%	c #D9C1C1",
"*%	c #EBD2D2",
"=%	c #EBD3D3",
"-%	c #ECD6D6",
";%	c #EFDADA",
">%	c #F3E3E3",
",%	c #EDEDED",
"'%	c #ABABAB",
")%	c #B9B9B9",
"!%	c #B4AEAE",
"~%	c #B3ABAB",
"{%	c #B2A9A9",
"]%	c #B1A7A7",
"^%	c #B0A4A4",
"/%	c #AFA3A3",
"(%	c #AEA1A1",
"_%	c #AEA0A0",
":%	c #F2E2E2",
"<%	c #F3E4E4",
"[%	c #F3E5E5",
"}%	c #F5E8E8",
"|%	c #FBF5F5",
"1%	c #F8F0F0",
"2%	c #F7ECEC",
"3%	c #F9F1F1",
"                                                                ",
". + @ . # $ . . . . . % & . . . . * . . . . . . . . . . . . . . ",
". = - ; > , = = = = = ; ' ) ) = ! ~ { ] ^ = = = = = = = = = = . ",
"+ ) / ( _ : = = = = = = < [ } = | 1 2 3 4 = = = = = = = = = = . ",
"+ 5 : 6 7 8 = = = = = 9 0 a b = c d e f g h = = = = = = = = = . ",
"i j k l m n o = = = p q r s t u v w x y z A B B = = = = = = = . ",
"C D E F G H I = = , J K L M N O P Q R y S T U V = = = = = = = . ",
"W X Y Z `  ...+.= @.#.$.%.&.*.=.-.;.>.,.'.).!.~.= = = = = = = . ",
"{.].^./.(._.:.<.[.}.|.1.2.2.3.4.5.6.7.8.9.0.a.b.c.~.= = = = = . ",
"d.e.f.g.h.i.j.k.l.m.n.o.p.q.r.s.t.u.v.w.x.y.z.A.B.C.D.E.= = = . ",
". F.G.H.I.J.K.&.L.M.N.O.P.Q.R.S.T.U.V.W.X.Y.Z.`. +.+++@+= = = . ",
"#+$+%+&+*+#.=+y -+;+>+,+'+)+!+~+{+]+^+/+(+_+:+<+[+}+|+b.c.~.= . ",
". 1+2+3+4+5+6+7+8+P.9+0+a+b+c+d+e+f+g+h+i+j+k+l+m+n+o+p+q+c.= . ",
". r+s+t+:.5+%.u+v+w+x+y+z+A+B+C+D+E+F+G+H+I+J+K+L+M+N+}+p+b.~.. ",
". O+P+Q+R+S+T+U+v+w+V+W+X+Y+Z+`+ @.@+@@@#@$@%@&@*@=@-@[+;@>@~.. ",
". ,@'@)@!@~@=+{@]@^@/@(@_@:@<@[@}@|@1@2@3@4@5@6@7@8@9@<+0@a@b.. ",
". = b@c@d@e@f@g@h@i@j@k@l@m@n@n@}@o@p@q@r@s@t@u@v@w@x@y@z@}+|+. ",
". 9 A@B@C@D@E@F@G@H@I@J@K@L@n@|@M@N@O@P@Q@R@S@T@U@V@W@X@<+Y@a@Z@",
". = = ~.`@ #.#+#@###$#%#&#*#L@=#-#;#>#,#'#)#!#T@~#{#]#^#/#[+;@Z@",
". = = = (#_#:#<#[#}#|#1#2#3#n@4#5#O@6#'#7#8#9#0#a#b#c#d#e#f#g#h#",
". = 9 i#j#k#l#m#n#o#p#q#q#r#s#t#u#v#v#v#v#w#x#0#y#z#A#B#C#f#}+h#",
". = D#E#F#G#H#I#J#K#L#M#N#O#P#u#x#x#x#x#x#x#0#T@~#Q#R#S#y@f#;@Z@",
". = = `@T#U#V#W#X#Y#Z#`# $.$+$@$#$$$%$T@&$*$#$=$-$;$>$,$'$)$;@Z@",
". = = !$~${$]$^$/$($_$:$<$[$}$|$1$2$3$4$5$1$6$7$8$9$0$a$b$c$d$Z@",
". = = = A@e$f$g$h$i$j$k$l$m$n$o$p$p$q$r$q$s$t$u$v$w$d#x$y$z$p+A$",
". = = = = = = ~.B$C$D$E$F$G$H$I$J$K$L$M$N$O$P$Q$R$S$T$'$f#}+|+. ",
". = = = = U$V$E.D.B.W$X$Y$Z$`$ %.%+%@%#%$%%%&%*%=%-%;%>%0@;@q+. ",
". = = = = ,%'%)%)%++.+ +!%~%{%]%^%/%(%_%(%/%:%>%<%[%}%0@g#|+b.. ",
". = = = = = = = = ~.b.>@p+|%;@}+1%Y@2%c$2%z$1%1%3%}+}+|%|+b.~.. ",
". = = = = = = = = = ~.c.b.b.q+|+|+a@|%;@|%a@p+|+|+|+>@q+c.~.~.. ",
". . . . . . . . . . . . . . . A$Z@Z@Z@h#Z@Z@Z@A$. . . . . . . . ",
"                                                                "};
