/* XPM */
static char * petris_icon_test_xpm[] = {
"32 32 4 1",
" 	c None",
".	c #0000AA",
"+	c #00AA00",
"@	c #AA0000",
"                        ........",
"                        ........",
"                        ........",
"                        ........",
"                        ........",
"                        ........",
"                        ........",
"                        ........",
"++++++++        ................",
"++++++++        ................",
"++++++++        ................",
"++++++++        ................",
"++++++++        ................",
"++++++++        ................",
"++++++++        ................",
"++++++++        ................",
"++++++++++++++++........@@@@@@@@",
"++++++++++++++++........@@@@@@@@",
"++++++++++++++++........@@@@@@@@",
"++++++++++++++++........@@@@@@@@",
"++++++++++++++++........@@@@@@@@",
"++++++++++++++++........@@@@@@@@",
"++++++++++++++++........@@@@@@@@",
"++++++++++++++++........@@@@@@@@",
"++++++++@@@@@@@@@@@@@@@@@@@@@@@@",
"++++++++@@@@@@@@@@@@@@@@@@@@@@@@",
"++++++++@@@@@@@@@@@@@@@@@@@@@@@@",
"++++++++@@@@@@@@@@@@@@@@@@@@@@@@",
"++++++++@@@@@@@@@@@@@@@@@@@@@@@@",
"++++++++@@@@@@@@@@@@@@@@@@@@@@@@",
"++++++++@@@@@@@@@@@@@@@@@@@@@@@@",
"++++++++@@@@@@@@@@@@@@@@@@@@@@@@"};
